<svg width="261" height="75" viewBox="0 0 261 75" fill="none" xmlns="http://www.w3.org/2000/svg">
<path d="M24.4753 1.46472e-05C6.24708 5.81375e-05 0.806943 15.863 0.269026 22.3158C0.269026 22.3158 0.0048369 42.7545 6.75112e-05 44.962C-0.00492849 47.2743 0.269026 50.877 0.269026 50.877C1.25521 57.5986 7 73.4616 23.1305 73.4616C39.1701 73.4616 164.623 74.6267 227.918 73.9993C237 73.9993 238.82 73.3732 242.5 69.6936C249.5 62.6936 238.945 67.2777 261 73.9993C249.973 70.5041 254.5 28.1936 253.738 23.1224C251.38 7.42618 238.408 0.537745 228.994 1.56009e-05L24.4753 1.46472e-05Z" fill="#181818"/>
</svg>
